Coordinates
version=1
nRows=22
nColumns=24
inDegrees=yes

Units are S.I. units (second, meters, Newtons, ...)
Angles are in degrees.

endheader
time	pelvis_tilt	pelvis_list	pelvis_rotation	pelvis_tx	pelvis_ty	pelvis_tz	hip_flexion_r	hip_adduction_r	hip_rotation_r	knee_angle_r	ankle_angle_r	subtalar_angle_r	mtp_angle_r	hip_flexion_l	hip_adduction_l	hip_rotation_l	knee_angle_l	ankle_angle_l	subtalar_angle_l	mtp_angle_l	lumbar_extension	lumbar_bending	lumbar_rotation
      5.68000000	     51.57282924	    -14.31224482	     -1.56117105	      0.43302023	      1.02052796	     -0.34949923	     26.69904648	     -0.38613024	      5.67390985	    -59.94660981	      8.51502498	     43.40643185	      0.00000000	     21.26909154	    -26.17822272	      9.82121821	    -67.54263192	     25.01828012	     30.61386802	      0.00000000	      0.00000000	      0.00000000	      0.00000000
      5.69000000	     51.57775941	    -14.31674350	     -1.56300590	      0.43303569	      1.02051705	     -0.34950266	     26.69615101	     -0.38262904	      5.67092896	    -59.96906487	      8.52108037	     43.41364277	      0.00000000	     21.26640219	    -26.18512379	      9.81958883	    -67.54718081	     25.02553640	     30.61402788	      0.00000000	      0.00000000	      0.00000000	      0.00000000
      5.70000000	     51.58419529	    -14.32088734	     -1.56341204	      0.43303201	      1.02051465	     -0.34949640	     26.69152701	     -0.37741886	      5.66887690	    -59.98977065	      8.52693846	     43.42082479	      0.00000000	     21.26203822	    -26.19237887	      9.81776573	    -67.54831272	     25.03270675	     30.61521640	      0.00000000	      0.00000000	      0.00000000	      0.00000000
      5.71000000	     51.59115402	    -14.32423079	     -1.56257379	      0.43302140	      1.02051614	     -0.34948844	     26.68609014	     -0.37181880	      5.66826673	    -60.00812598	      8.53171881	     43.42734504	      0.00000000	     21.25689167	    -26.19867466	      9.81580795	    -67.54537061	     25.03887435	     30.61711859	      0.00000000	      0.00000000	      0.00000000	      0.00000000
      5.72000000	     51.59765418	    -14.32659614	     -1.56110325	      0.43301238	      1.02051607	     -0.34948451	     26.68088440	     -0.36699352	      5.66926742	    -60.02451315	      8.53484392	     43.43277236	      0.00000000	     21.25160343	    -26.20318472	      9.81369514	    -67.53933557	     25.04341796	     30.61933738	      0.00000000	      0.00000000	      0.00000000	      0.00000000
      5.73000000	     51.60286651	    -14.32773551	     -1.55978953	      0.43300530	      1.02051106	     -0.34948576	     26.67697235	     -0.36369080	      5.67155564	    -60.03973211	      8.53614450	     43.43681394	      0.00000000	     21.24673446	    -26.20547208	      9.81127345	    -67.53198716	     25.04614550	     30.62153276	      0.00000000	      0.00000000	      0.00000000	      0.00000000
      5.74000000	     51.60622275	    -14.32738222	     -1.55933594	      0.43299653	      1.02050283	     -0.34949077	     26.67532114	     -0.36230667	      5.67441708	    -60.05438913	      8.53583226	     43.43922141	      0.00000000	     21.24292678	    -26.20532561	      9.80831821	    -67.52487824	     25.04727432	     30.62351976	      0.00000000	      0.00000000	      0.00000000	      0.00000000
      5.75000000	     51.60729186	    -14.32540702	     -1.56010423	      0.43298604	      1.02049603	     -0.34949838	     26.67652625	     -0.36300529	      5.67702803	    -60.06860771	      8.53437033	     43.43973777	      0.00000000	     21.24084523	    -26.20268534	      9.80470222	    -67.51871134	     25.04729089	     30.62528447	      0.00000000	      0.00000000	      0.00000000	      0.00000000
      5.76000000	     51.60568536	    -14.32183575	     -1.56194994	      0.43297901	      1.02049207	     -0.34950874	     26.68054925	     -0.36566416	      5.67876526	    -60.08209952	      8.53230885	     43.43812902	      0.00000000	     21.24096801	    -26.19771094	      9.80055006	    -67.51331090	     25.04675036	     30.62692194	      0.00000000	      0.00000000	      0.00000000	      0.00000000
      5.77000000	     51.60136211	    -14.31687597	     -1.56425681	      0.43297877	      1.02048868	     -0.34952059	     26.68681437	     -0.36977395	      5.67943180	    -60.09441964	      8.53015580	     43.43428480	      0.00000000	     21.24341796	    -26.19093156	      9.79625691	    -67.50804421	     25.04609418	     30.62853657	      0.00000000	      0.00000000	      0.00000000	      0.00000000
      5.78000000	     51.59502131	    -14.31105933	     -1.56623255	      0.43297930	      1.02048709	     -0.34952862	     26.69450313	     -0.37447502	      5.67923324	    -60.10528619	      8.52831833	     43.42832593	      0.00000000	     21.24789720	    -26.18331277	      9.79235744	    -67.50246687	     25.04555606	     30.63016625	      0.00000000	      0.00000000	      0.00000000	      0.00000000
      5.79000000	     51.58800646	    -14.30535075	     -1.56735514	      0.43296887	      1.02049280	     -0.34952708	     26.70262132	     -0.37874690	      5.67844794	    -60.11488291	      8.52710098	     43.42065177	      0.00000000	     21.25365624	    -26.17611185	      9.78933482	    -67.49690735	     25.04517080	     30.63177288	      0.00000000	      0.00000000	      0.00000000	      0.00000000
      5.80000000	     51.58179399	    -14.30103627	     -1.56765637	      0.43294614	      1.02050447	     -0.34951784	     26.70987703	     -0.38169748	      5.67708408	    -60.12394522	      8.52671837	     43.41189572	      0.00000000	     21.25954725	    -26.17053788	      9.78748549	    -67.49258463	     25.04486112	     30.63329100	      0.00000000	      0.00000000	      0.00000000	      0.00000000
      5.81000000	     51.57759352	    -14.29924098	     -1.56754570	      0.43293136	      1.02050986	     -0.34951171	     26.71484995	     -0.38284190	      5.67488800	    -60.13341005	      8.52728882	     43.40280529	      0.00000000	     21.26429291	    -26.16737221	      9.78690284	    -67.49104776	     25.04455239	     30.63468854	      0.00000000	      0.00000000	      0.00000000	      0.00000000
      5.82000000	     51.57614115	    -14.30019686	     -1.56726376	      0.43294419	      1.02050189	     -0.34951585	     26.71655508	     -0.38223335	      5.67166190	    -60.14378628	      8.52881105	     43.39409307	      0.00000000	     21.26691240	    -26.16672918	      9.78752902	    -67.49323805	     25.04424859	     30.63599692	      0.00000000	      0.00000000	      0.00000000	      0.00000000
      5.83000000	     51.57752888	    -14.30296634	     -1.56661784	      0.43297533	      1.02049017	     -0.34952325	     26.71489346	     -0.38041708	      5.66751804	    -60.15478874	      8.53115198	     43.38630305	      0.00000000	     21.26706996	    -26.16804639	      9.78919413	    -67.49881114	     25.04402958	     30.63729745	      0.00000000	      0.00000000	      0.00000000	      0.00000000
      5.84000000	     51.58116806	    -14.30605430	     -1.56534518	      0.43300130	      1.02048610	     -0.34952247	     26.71061711	     -0.37826294	      5.66284390	    -60.16556728	      8.53406936	     43.37971304	      0.00000000	     21.26514820	    -26.17029442	      9.79161938	    -67.50623643	     25.04398044	     30.63867620	      0.00000000	      0.00000000	      0.00000000	      0.00000000
      5.85000000	     51.58589699	    -14.30827747	     -1.56353847	      0.43301243	      1.02048784	     -0.34951141	     26.70494979	     -0.37672544	      5.65805927	    -60.17532737	      8.53727210	     43.37428210	      0.00000000	     21.26201889	    -26.17232218	      9.79440830	    -67.51364933	     25.04410189	     30.64017276	      0.00000000	      0.00000000	      0.00000000	      0.00000000
      5.86000000	     51.59029606	    -14.30917096	     -1.56165465	      0.43301491	      1.02048762	     -0.34949652	     26.69923646	     -0.37658647	      5.65339084	    -60.18385413	      8.54050068	     43.36965723	      0.00000000	     21.25869556	    -26.17321048	      9.79709038	    -67.51983337	     25.04425271	     30.64175140	      0.00000000	      0.00000000	      0.00000000	      0.00000000
      5.87000000	     51.59320697	    -14.30884281	     -1.56023838	      0.43301741	      1.02048332	     -0.34948430	     26.69474677	     -0.37827531	      5.64881881	    -60.19161051	      8.54359300	     43.36524957	      0.00000000	     21.25605965	    -26.17253393	      9.79925408	    -67.52468104	     25.04414563	     30.64331370	      0.00000000	      0.00000000	      0.00000000	      0.00000000
      5.88000000	     51.59409679	    -14.30757394	     -1.55963423	      0.43302267	      1.02047726	     -0.34947703	     26.69245048	     -0.38182272	      5.64416263	    -60.19945316	      8.54650559	     43.36037346	      0.00000000	     21.25471699	    -26.17042652	      9.80070283	    -67.52895837	     25.04340094	     30.64475095	      0.00000000	      0.00000000	      0.00000000	      0.00000000
      5.89000000	     51.59302428	    -14.30556818	     -1.55985795	      0.43303004	      1.02047124	     -0.34947383	     26.69273387	     -0.38693563	      5.63919185	    -60.20822784	      8.54929240	     43.35441950	      0.00000000	     21.25496814	    -26.16737435	      9.80150409	    -67.53365194	     25.04165988	     30.64600895	      0.00000000	      0.00000000	      0.00000000	      0.00000000
